<svg width="598" height="473" viewBox="0 0 598 473" fill="none" xmlns="http://www.w3.org/2000/svg">
<g clip-path="url(#clip0)">
<rect x="186.5" y="472.5" width="39" height="215" transform="rotate(-90 186.5 472.5)" fill="#FF9900"/>
<rect x="187.5" y="41.5" width="41" height="215" transform="rotate(-90 187.5 41.5)" fill="#FF9900"/>
<rect x="6.5" y="436.5" width="398" height="586" rx="195" transform="rotate(-90 6.5 436.5)" fill="#0000E1"/>
<rect x="13.5" y="428.5" width="383" height="572" rx="190" transform="rotate(-90 13.5 428.5)" fill="black"/>
<rect x="33.5" y="409.5" width="345" height="532" rx="170" transform="rotate(-90 33.5 409.5)" fill="white"/>
<rect x="52.5" y="384.5" width="296" height="493" rx="140" transform="rotate(-90 52.5 384.5)" fill="#A349A4"/>
<rect x="81.5" y="359.5" width="245" height="435" rx="120" transform="rotate(-90 81.5 359.5)" fill="#FFF200"/>
<line x1="13.5" y1="236" x2="112.5" y2="236" stroke="#CE8644" stroke-width="5"/>
<line x1="52.5" y1="236" x2="112.5" y2="236" stroke="white" stroke-width="5"/>
<line x1="475.5" y1="236" x2="585.5" y2="236" stroke="#FF7F27" stroke-width="5"/>
<line x1="292" y1="428.5" x2="292" y2="45.5" stroke="#FF7F27" stroke-width="5"/>
<line x1="240" y1="428.5" x2="240" y2="45.5" stroke="#FF7F27" stroke-width="5"/>
<line x1="342" y1="428.5" x2="342" y2="45.5" stroke="#FF7F27" stroke-width="5"/>
<line x1="456.325" y1="374.733" x2="428.487" y2="325.648" stroke="#FF7F27" stroke-width="5"/>
<line x1="504.873" y1="342.398" x2="462.873" y2="306.398" stroke="#FF7F27" stroke-width="5"/>
<line x1="533.513" y1="300.797" x2="483.637" y2="279.369" stroke="#FF7F27" stroke-width="5"/>
<line x1="535.388" y1="177.837" x2="485.388" y2="196.837" stroke="#FF7F27" stroke-width="5"/>
<line x1="571.38" y1="163.84" x2="534.815" y2="177.583" stroke="#FF0000" stroke-width="5"/>
<line x1="538.947" y1="110.539" x2="507.947" y2="132.539" stroke="#FF0000" stroke-width="5"/>
<line x1="484.53" y1="67.9591" x2="461.53" y2="99.9591" stroke="#FF0000" stroke-width="5"/>
<line x1="568.875" y1="314.822" x2="533.575" y2="300.756" stroke="#FF0000" stroke-width="5"/>
<line x1="533.051" y1="368.334" x2="504.801" y2="342.177" stroke="#FF0000" stroke-width="5"/>
<line x1="475.59" y1="410.681" x2="456.297" y2="374.681" stroke="#FF0000" stroke-width="5"/>
<line x1="507.985" y1="132.511" x2="465.985" y2="163.511" stroke="#FF7F27" stroke-width="5"/>
<line x1="461.552" y1="99.9277" x2="429.552" y2="145.928" stroke="#FF7F27" stroke-width="5"/>
<line x1="124.679" y1="63.2743" x2="169.679" y2="143.274" stroke="#FF7F27" stroke-width="5"/>
<line x1="124.179" y1="62.4113" x2="143.789" y2="97.2744" stroke="#FF0000" stroke-width="5"/>
<line x1="66.1694" y1="105.639" x2="134.169" y2="166.639" stroke="#FF7F27" stroke-width="5"/>
<line x1="65.6694" y1="105.251" x2="93.2115" y2="129.958" stroke="#FF0000" stroke-width="5"/>
<line x1="29.4615" y1="160.192" x2="113.462" y2="195.192" stroke="#FF7F27" stroke-width="5"/>
<line x1="29.4519" y1="160.188" x2="63.4519" y2="174.188" stroke="#FF0000" stroke-width="5"/>
<line x1="61.6007" y1="294.667" x2="144.601" y2="262.667" stroke="#FF7F27" stroke-width="5"/>
<line x1="91.8776" y1="339.598" x2="159.878" y2="281.598" stroke="#FF7F27" stroke-width="5"/>
<line x1="140.301" y1="374.311" x2="164.075" y2="330.325" stroke="#FF7F27" stroke-width="5"/>
<line x1="400" y1="45.5" x2="400" y2="428.5" stroke="#FF7F27" stroke-width="5"/>
<line x1="190" y1="428.5" x2="190" y2="45.5" stroke="#FF7F27" stroke-width="5"/>
<rect x="102.5" y="337.5" width="201" height="392" rx="95" transform="rotate(-90 102.5 337.5)" fill="#22B14C"/>
<line y1="-2.5" x2="40" y2="-2.5" transform="matrix(0.490261 -0.871576 -0.871576 -0.490261 118 407.5)" stroke="#FF0000" stroke-width="5"/>
<line y1="-2.5" x2="40" y2="-2.5" transform="matrix(0.759494 -0.650514 -0.650514 -0.759494 60.5 363.5)" stroke="#FF0000" stroke-width="5"/>
<line y1="-2.5" x2="38" y2="-2.5" transform="matrix(0.924678 -0.38075 -0.38075 -0.924678 26.5 306.5)" stroke="#FF0000" stroke-width="5"/>
<line x1="545.5" y1="236" x2="585.5" y2="236" stroke="#FF0000" stroke-width="5"/>
<line x1="190" y1="89.5" x2="190" y2="45.5" stroke="#FF0000" stroke-width="5"/>
<line x1="240" y1="89.5" x2="240" y2="45.5" stroke="#FF0000" stroke-width="5"/>
<line x1="292" y1="89.5" x2="292" y2="45.5" stroke="#FF0000" stroke-width="5"/>
<line x1="342" y1="89.5" x2="342" y2="45.5" stroke="#FF0000" stroke-width="5"/>
<line x1="190" y1="428.5" x2="190" y2="384.5" stroke="#FF0000" stroke-width="5"/>
<line x1="240" y1="428.5" x2="240" y2="384.5" stroke="#FF0000" stroke-width="5"/>
<line x1="292" y1="428.5" x2="292" y2="384.5" stroke="#FF0000" stroke-width="5"/>
<line x1="342" y1="428.5" x2="342" y2="384.5" stroke="#FF0000" stroke-width="5"/>
<line x1="400" y1="89.5" x2="400" y2="45.5" stroke="#FF0000" stroke-width="5"/>
<line x1="400" y1="428.5" x2="400" y2="384.5" stroke="#FF0000" stroke-width="5"/>
<circle cx="35.5" cy="204.5" r="11.5" fill="#F70014" stroke="black" stroke-width="2"/>
<circle cx="60.5" cy="142.5" r="11.5" fill="#F70014" stroke="black" stroke-width="2"/>
<circle cx="104.5" cy="96.5" r="11.5" fill="#F70014" stroke="black" stroke-width="2"/>
<circle cx="161.5" cy="70.5" r="11.5" fill="#F70014" stroke="black" stroke-width="2"/>
<circle cx="214.5" cy="64.5" r="11.5" fill="#F70014" stroke="black" stroke-width="2"/>
<circle cx="265.5" cy="64.5" r="11.5" fill="#F70014" stroke="black" stroke-width="2"/>
<circle cx="316.5" cy="64.5" r="11.5" fill="#F70014" stroke="black" stroke-width="2"/>
<circle cx="370.5" cy="64.5" r="11.5" fill="#F70014" stroke="black" stroke-width="2"/>
<circle cx="437.5" cy="69.5" r="11.5" fill="#F70014" stroke="black" stroke-width="2"/>
<circle cx="497.5" cy="99.5" r="11.5" fill="#F70014" stroke="black" stroke-width="2"/>
<circle cx="538.5" cy="144.5" r="11.5" fill="#F70014" stroke="black" stroke-width="2"/>
<circle cx="562.5" cy="203.5" r="11.5" fill="#F70014" stroke="black" stroke-width="2"/>
<circle cx="563.5" cy="271.5" r="11.5" fill="#F70014" stroke="black" stroke-width="2"/>
<circle cx="538.5" cy="331.5" r="11.5" fill="#F70014" stroke="black" stroke-width="2"/>
<circle cx="493.5" cy="378.5" r="11.5" fill="#F70014" stroke="black" stroke-width="2"/>
<circle cx="431.5" cy="406.5" r="11.5" fill="#F70014" stroke="black" stroke-width="2"/>
<circle cx="370.5" cy="409.5" r="11.5" fill="#F70014" stroke="black" stroke-width="2"/>
<circle cx="316.5" cy="409.5" r="11.5" fill="#F70014" stroke="black" stroke-width="2"/>
<circle cx="265.5" cy="410.5" r="11.5" fill="#F70014" stroke="black" stroke-width="2"/>
<circle cx="214.5" cy="409.5" r="11.5" fill="#F70014" stroke="black" stroke-width="2"/>
<circle cx="157.5" cy="403.5" r="11.5" fill="#F70014" stroke="black" stroke-width="2"/>
<circle cx="98.5" cy="375.5" r="11.5" fill="#F70014" stroke="black" stroke-width="2"/>
<circle cx="56.5" cy="327.5" r="11.5" fill="#F70014" stroke="black" stroke-width="2"/>
<circle cx="35.5" cy="271.5" r="11.5" fill="#F70014" stroke="black" stroke-width="2"/>
</g>
<defs>
<clipPath id="clip0">
<rect width="472" height="597" fill="white" transform="translate(0.5 472.5) rotate(-90)"/>
</clipPath>
</defs>
</svg>
