<svg xmlns="http://www.w3.org/2000/svg" xmlns:xlink="http://www.w3.org/1999/xlink" xmlns:v="http://vecta.io" width="428" height="479" viewBox="0 0 428 479" ><style><![CDATA[svg{stroke:#000;stroke-linecap:round;stroke-linejoin:round;fill:#fff;fill-rule:evenodd;font-family:Roboto;font-size:14px;text-anchor:middle}svg text{stroke:none}]]></style><g transform="translate(0.5 0.5)"><g ><g transform="translate(69.075 0)"><path d="M 92.925 101 L 87.425 59.6 L 83.925 58.8 C 82.025 58.4 73.925 56.7 65.925 55 C 57.925 53.2 47.625 51 42.925 50 C 33.925 48.1 16.525 44 6.225 41.4 C -0.175 39.8 -1.575 38.6 1.725 37.6 C 4.825 36.7 56.025 23.2 79.925 17.1 C 92.825 13.8 107.725 9.9 112.925 8.5 C 118.125 7.1 127.625 4.7 133.925 3 L 145.525 0 L 156.925 3 C 163.225 4.7 188.025 11.2 211.925 17.5 C 277.725 34.9 287.325 37.6 287.725 38.8 C 288.225 40.3 276.225 43.4 232.225 53.1 L 198.425 60 L 197.425 98 Z M 214.025 126 Z Z Z Z Z" stroke="none" fill="#000201" stroke-width="0.1"/></g><g transform="translate(68.825 0)"><path d="M 84.925 86.25 C 87.925 79.5 88.025 78.8 87.725 69.4 L 87.425 59.6 L 83.925 58.8 C 82.025 58.4 73.925 56.7 65.925 55 C 57.925 53.2 47.625 51 42.925 50 C 33.925 48.1 16.525 44 6.225 41.4 C -0.175 39.8 -1.575 38.6 1.725 37.6 C 4.825 36.7 56.025 23.2 79.925 17.1 C 92.825 13.8 107.725 9.9 112.925 8.5 C 118.125 7.1 127.625 4.7 133.925 3 L 145.525 0 L 156.925 3 C 163.225 4.7 188.025 11.2 211.925 17.5 C 277.725 34.9 287.325 37.6 287.725 38.8 C 288.225 40.3 276.225 43.4 232.225 53.1 L 212.925 57.3 L 212.925 75.2 C 212.925 90.3 213.225 93.5 214.625 95.6 C 215.925 97.7 216.025 98.8 215.225 101 C 214.625 102.6 214.525 104.4 215.025 105.1 C 215.525 105.9 215.925 112.2 215.925 119.1 C 215.925 130.4 216.675 153 217.675 154 Z Z Z Z Z M 151.125 91.4 C 157.325 87.4 177.325 80.7 186.425 79.5 C 189.225 79.2 192.825 78.7 194.425 78.5 L 197.425 78 L 197.525 69.5 C 197.625 64.8 197.525 61 197.425 61 C 197.225 61 191.025 62.4 183.725 64.1 C 176.425 65.8 168.525 67.6 166.325 68.1 C 164.025 68.5 158.425 69.9 153.825 71 C 145.525 73.2 145.925 73 136.125 71 C 135.05 70.75 130.925 69.5 127.425 68.6 C 123.625 67.8 114.225 65.8 106.725 64.1 C 99.125 62.4 92.525 61 91.925 61 C 91.325 61 90.925 64.4 90.925 69.4 L 90.925 77.9 L 95.725 78.5 C 109.525 80.2 136.425 89.15 141.675 93.5 C 143.925 94.65 146.125 94.7 151.125 91.4 Z Z M 206.125 73.8 C 205.925 65.9 205.625 59.3 205.425 59.2 C 205.225 59 204.125 59.1 203.025 59.5 C 201.125 60.1 200.925 60.9 200.925 70.1 C 200.925 78.1 201.3 80.875 202.8 84.125 C 203.55 87.125 205.325 88 205.725 88 C 206.125 88 206.225 81.6 206.125 73.8 Z M 181.925 61.5 C 200.325 57.3 219.525 53 224.425 51.9 C 229.425 50.8 236.825 49 240.925 48 C 245.025 47 254.925 44.7 262.925 43 C 270.925 41.2 277.825 39.4 278.225 39 C 278.625 38.6 270.825 36.2 260.725 33.6 C 250.625 31 239.525 28 235.925 27 C 232.325 26 224.925 23.9 219.425 22.5 C 209.325 19.9 187.925 14.2 162.325 7.3 C 154.725 5.3 147.125 3.6 145.425 3.6 C 143.825 3.6 135.225 5.5 126.425 7.9 C 101.525 14.5 94.025 16.5 70.925 22.5 C 34.625 32 11.125 38 10.425 38 C 10.125 38 10.025 38.4 10.325 38.9 C 10.625 39.4 12.625 40.1 14.625 40.5 C 16.725 40.8 22.925 42.2 28.425 43.5 C 47.125 47.8 65.425 51.9 81.425 55.5 C 90.225 57.5 108.225 61.5 121.425 64.4 C 134.625 67.4 146.125 69.6 146.925 69.4 C 147.725 69.2 163.525 65.6 181.925 61.5 Z" stroke="#1e9677" fill="#1e9677" stroke-width="0.1" fill-opacity="1" stroke-opacity="1"/></g><g transform="translate(0 80.5)"><path d="M 45.9 397.1 C 45.6 396.8 40.7 396.1 35 395.6 C 25.4 394.8 24.5 394.6 22.2 391.9 C 19.8 389.2 19.8 388.7 20.2 376.5 C 20.7 365.6 21.2 362.6 24.5 352.5 C 33.9 323.6 53.4 281.2 80 232.5 C 87.3 219 93.7 206.5 94.1 204.6 C 96.1 195.6 89.7 192.1 65.6 189.5 C 30 185.5 11.5 178.2 2.9 164.6 C 0.4 160.7 0 159.1 0 152.7 C 0 146.5 0.5 144.3 3.3 138.2 C 15.9 111.2 43.5 93.3 108 70.5 C 137.7 59.9 142 57.9 143.9 53.9 C 144.6 52.3 145.6 45.7 146.1 39 C 147.3 23.2 149.4 14 153.6 5.5 L 156 0 L 164.3 0.9 C 178.7 2.5 196.9 8.5 208.8 15.7 L 213.2 18.3 L 224.6 12.5 C 237.1 6.2 247.1 3.1 260.4 1.3 L 269 0.2 L 270.5 0.125 C 272.25 5.375 273.125 6.75 274.625 7.25 C 274.875 9.25 276.5 11 274.6 14.1 C 272 16 273.5 22 273.1 40.8 C 273 54.4 273.3 65.5 273.7 65.5 L 285 65.3 L 285 58.3 L 285 51.2 L 287.1 53.9 C 290.2 57.8 298.2 61.5 325 71.2 C 377.7 90.3 412.9 111.4 424.3 130.6 C 427.8 136.7 428 137.3 428 146 C 428 153.1 427.6 155.7 426.1 158.1 C 418.4 170.8 402.2 177.8 366.4 183.8 C 343 187.8 335 191.6 335 198.7 C 335 205 337.3 210.2 358.5 253 C 376.5 289.5 384.6 306.3 392.5 324 C 399.6 340.1 407.1 359.3 408.4 365.2 C 411.4 378.5 410 390.8 405.2 393.4 C 397.7 397.4 396.8 397.5 333.7 397.5 C 273.9 397.5 272.9 397.5 268.5 395.4 C 266 394.2 262.4 391.5 260.6 389.4 C 258.8 387.2 249.9 370.7 240.9 352.7 C 224.5 319.9 219.2 311.5 214.9 311.5 C 210.7 311.5 205.9 318.1 193.7 341 C 173.3 379.2 171.8 381.6 165.8 387.6 C 156.4 397.1 158.2 396.9 98 397.3 C 69.6 397.4 46.2 397.3 45.9 397.1 Z" stroke="none" fill="#1abb9c" stroke-width="0.1" stroke-opacity="1"/></g><g transform="translate(274 59)"><path d="M 0.5 85.1 C 0.2 84.9 0 76.5 0 66.6 C 0.1 52.3 0.4 48.1 1.5 46.6 C 2.8 44.9 2.8 45.85 1.5 43.75 C 0.2 41.85 0.2 39.7 1.2 38 C 1.9 36.9 2.375 36.125 3 36 C 3.25 35.75 3.4 27.9 3.2 18 C 3 2.3 3.1 0 4.5 0 C 5.8 0 6 2.5 6 18.5 C 6.25 33 6.25 36 6.75 36.25 C 8 37 9.8 39.9 8.5 43 C 7.75 45.75 7 45 8 46 C 9.75 47.25 9.55 55.7 9.5 66 L 10 85 L 4.4 85.2 C 2.5 85.4 0.7 85.4 0.5 85.1 Z" stroke="#1e9677" fill="#aeb934" stroke-width="0.1" stroke-opacity="1"/></g></g></g></svg>