<!DOCTYPE svg PUBLIC "-//W3C//DTD SVG 20010904//EN" "http://www.w3.org/TR/2001/REC-SVG-20010904/DTD/svg10.dtd">
<svg version="1.0" xmlns="http://www.w3.org/2000/svg" width="452px" height="488px" viewBox="0 0 4520 4880" preserveAspectRatio="xMidYMid meet">
<g id="layer101" fill="#000201" stroke="none">
 <path d="M629 4836 c-3 -3 -52 -10 -109 -15 -96 -8 -105 -10 -128 -37 -24 -27 -24 -32 -20 -154 5 -109 10 -139 43 -240 94 -289 289 -713 555 -1200 73 -135 137 -260 141 -279 20 -90 -44 -125 -285 -151 -356 -40 -541 -113 -627 -249 -25 -39 -29 -55 -29 -119 0 -62 5 -84 33 -145 126 -270 402 -449 1047 -677 297 -106 340 -126 359 -166 7 -16 17 -82 22 -149 12 -158 33 -250 75 -334 33 -67 35 -73 32 -167 l-3 -98 -35 -8 c-19 -4 -100 -21 -180 -38 -80 -18 -183 -40 -230 -50 -90 -19 -264 -60 -367 -86 -64 -16 -78 -28 -45 -38 31 -9 543 -144 782 -205 129 -33 278 -72 330 -86 52 -14 147 -38 210 -55 l116 -30 114 30 c63 17 311 82 550 145 658 174 754 201 758 213 5 15 -115 46 -555 143 l-193 42 0 179 c0 151 3 183 17 204 13 21 14 32 6 54 -6 16 -7 34 -2 41 5 8 9 71 9 140 0 113 2 129 21 153 31 39 111 76 379 173 527 191 879 402 993 594 35 61 37 67 37 154 0 71 -4 97 -19 121 -77 127 -239 197 -597 257 -234 40 -314 78 -314 149 0 63 23 115 235 543 180 365 261 533 340 710 71 161 146 353 159 412 30 133 16 256 -32 282 -75 40 -84 41 -715 41 -598 0 -608 0 -652 -21 -25 -12 -61 -39 -79 -60 -18 -22 -107 -187 -197 -367 -164 -328 -217 -412 -260 -412 -42 0 -90 66 -212 295 -204 382 -219 406 -279 466 -94 95 -76 93 -678 97 -284 1 -518 0 -521 -2z m2372 -3516 c-1 -101 -4 -186 -6 -189 -3 -2 -5 79 -5 182 l0 186 -32 4 c-28 4 -28 4 5 3 l39 -1 -1 -185z m-72 -241 c-13 -25 -14 -24 -14 16 0 30 2 33 12 19 9 -12 9 -22 2 -35z m64 26 c-3 -9 -8 -14 -10 -11 -3 3 -2 9 2 15 9 16 15 13 8 -4z m-10 -95 c-3 -12 -8 -19 -11 -16 -5 6 5 36 12 36 2 0 2 -9 -1 -20z m-7 -357 c-3 -7 -13 -12 -23 -12 -17 1 -17 2 0 6 15 4 17 22 19 171 l2 167 3 -160 c2 -87 1 -165 -1 -172z m-54 145 c-2 -79 -5 -145 -7 -146 -2 -2 -13 -1 -24 3 -19 6 -21 14 -21 106 0 80 4 108 20 139 11 22 24 40 28 40 4 0 5 -64 4 -142z"/>
 </g>
<g id="layer102" fill="#0e6756" stroke="none">
 <path d="M629 4836 c-3 -3 -52 -10 -109 -15 -96 -8 -105 -10 -128 -37 -24 -27 -24 -32 -20 -154 5 -109 10 -139 43 -240 94 -289 289 -713 555 -1200 73 -135 137 -260 141 -279 20 -90 -44 -125 -285 -151 -356 -40 -541 -113 -627 -249 -25 -39 -29 -55 -29 -119 0 -62 5 -84 33 -145 126 -270 402 -449 1047 -677 297 -106 340 -126 359 -166 7 -16 17 -82 22 -149 12 -158 33 -250 75 -334 33 -67 35 -73 32 -167 l-3 -98 -35 -8 c-19 -4 -100 -21 -180 -38 -80 -18 -183 -40 -230 -50 -90 -19 -264 -60 -367 -86 -64 -16 -78 -28 -45 -38 31 -9 543 -144 782 -205 129 -33 278 -72 330 -86 52 -14 147 -38 210 -55 l116 -30 114 30 c63 17 311 82 550 145 658 174 754 201 758 213 5 15 -115 46 -555 143 l-193 42 0 179 c0 151 3 183 17 204 13 21 14 32 6 54 -6 16 -7 34 -2 41 5 8 9 71 9 140 0 113 2 129 21 153 31 39 111 76 379 173 527 191 879 402 993 594 35 61 37 67 37 154 0 71 -4 97 -19 121 -77 127 -239 197 -597 257 -234 40 -314 78 -314 149 0 63 23 115 235 543 180 365 261 533 340 710 71 161 146 353 159 412 30 133 16 256 -32 282 -75 40 -84 41 -715 41 -598 0 -608 0 -652 -21 -25 -12 -61 -39 -79 -60 -18 -22 -107 -187 -197 -367 -164 -328 -217 -412 -260 -412 -42 0 -90 66 -212 295 -204 382 -219 406 -279 466 -94 95 -76 93 -678 97 -284 1 -518 0 -521 -2z m2372 -3516 c-1 -101 -4 -186 -6 -189 -3 -2 -5 79 -5 182 l0 186 -32 4 c-28 4 -28 4 5 3 l39 -1 -1 -185z m-72 -241 c-13 -25 -14 -24 -14 16 0 30 2 33 12 19 9 -12 9 -22 2 -35z m64 26 c-3 -9 -8 -14 -10 -11 -3 3 -2 9 2 15 9 16 15 13 8 -4z m-10 -95 c-3 -12 -8 -19 -11 -16 -5 6 5 36 12 36 2 0 2 -9 -1 -20z m-427 -119 c49 -17 131 -36 182 -42 l92 -13 2 -43 c1 -24 2 -57 3 -74 1 -17 -3 -33 -10 -35 -6 -3 -119 20 -251 51 -156 37 -253 55 -279 52 -22 -2 -139 -27 -260 -55 -121 -29 -228 -52 -237 -52 -16 0 -18 10 -18 78 l0 78 91 12 c113 15 248 59 354 115 l80 42 81 -42 c44 -23 121 -56 170 -72z m420 -238 c-3 -7 -13 -12 -23 -12 -17 1 -17 2 0 6 15 4 17 22 19 171 l2 167 3 -160 c2 -87 1 -165 -1 -172z m-54 145 c-2 -79 -5 -145 -7 -146 -2 -2 -13 -1 -24 3 -19 6 -21 14 -21 106 0 80 4 108 20 139 11 22 24 40 28 40 4 0 5 -64 4 -142z m-490 -72 c56 -14 263 -61 458 -105 195 -44 425 -96 510 -116 85 -20 170 -39 188 -42 49 -9 46 -18 -11 -33 -29 -7 -140 -36 -247 -65 -283 -76 -445 -119 -615 -163 -82 -22 -206 -54 -275 -72 l-125 -33 -180 47 c-193 50 -421 109 -872 227 -155 41 -279 77 -275 80 4 3 93 25 197 48 105 24 318 71 475 106 157 35 362 81 455 103 94 22 180 40 192 41 12 0 68 -10 125 -23z"/>
 </g>
<g id="layer103" fill="#1e9677" stroke="none">
 <path d="M629 4836 c-3 -3 -52 -10 -109 -15 -96 -8 -105 -10 -128 -37 -24 -27 -24 -32 -20 -154 5 -109 10 -139 43 -240 94 -289 289 -713 555 -1200 73 -135 137 -260 141 -279 20 -90 -44 -125 -285 -151 -356 -40 -541 -113 -627 -249 -25 -39 -29 -55 -29 -119 0 -62 5 -84 33 -145 126 -270 402 -449 1047 -677 297 -106 340 -126 359 -166 7 -16 17 -82 22 -149 12 -158 33 -250 75 -334 33 -67 35 -73 32 -167 l-3 -98 -35 -8 c-19 -4 -100 -21 -180 -38 -80 -18 -183 -40 -230 -50 -90 -19 -264 -60 -367 -86 -64 -16 -78 -28 -45 -38 31 -9 543 -144 782 -205 129 -33 278 -72 330 -86 52 -14 147 -38 210 -55 l116 -30 114 30 c63 17 311 82 550 145 658 174 754 201 758 213 5 15 -115 46 -555 143 l-193 42 0 179 c0 151 3 183 17 204 13 21 14 32 6 54 -6 16 -7 34 -2 41 5 8 9 71 9 140 0 113 2 129 21 153 31 39 111 76 379 173 527 191 879 402 993 594 35 61 37 67 37 154 0 71 -4 97 -19 121 -77 127 -239 197 -597 257 -234 40 -314 78 -314 149 0 63 23 115 235 543 180 365 261 533 340 710 71 161 146 353 159 412 30 133 16 256 -32 282 -75 40 -84 41 -715 41 -598 0 -608 0 -652 -21 -25 -12 -61 -39 -79 -60 -18 -22 -107 -187 -197 -367 -164 -328 -217 -412 -260 -412 -42 0 -90 66 -212 295 -204 382 -219 406 -279 466 -94 95 -76 93 -678 97 -284 1 -518 0 -521 -2z m2372 -3516 c-1 -101 -4 -186 -6 -189 -3 -2 -5 79 -5 182 l0 186 -32 4 c-28 4 -28 4 5 3 l39 -1 -1 -185z m-72 -241 c-13 -25 -14 -24 -14 16 0 30 2 33 12 19 9 -12 9 -22 2 -35z m64 26 c-3 -9 -8 -14 -10 -11 -3 3 -2 9 2 15 9 16 15 13 8 -4z m-10 -95 c-3 -12 -8 -19 -11 -16 -5 6 5 36 12 36 2 0 2 -9 -1 -20z m-611 -36 c62 -40 262 -107 353 -119 28 -3 64 -8 80 -10 l30 -5 1 -85 c1 -47 0 -85 -1 -85 -2 0 -64 14 -137 31 -73 17 -152 35 -174 40 -23 4 -79 18 -125 29 -83 22 -139 21 -177 0 -9 -5 -48 -16 -87 -24 -38 -8 -132 -28 -207 -45 -76 -17 -142 -31 -148 -31 -6 0 -10 34 -10 84 l0 85 48 6 c138 17 414 107 462 151 17 17 42 11 92 -22z m604 -321 c-3 -7 -13 -12 -23 -12 -17 1 -17 2 0 6 15 4 17 22 19 171 l2 167 3 -160 c2 -87 1 -165 -1 -172z m-54 145 c-2 -79 -5 -145 -7 -146 -2 -2 -13 -1 -24 3 -19 6 -21 14 -21 106 0 80 4 108 20 139 11 22 24 40 28 40 4 0 5 -64 4 -142z m-242 -123 c184 -42 376 -85 425 -96 50 -11 124 -29 165 -39 41 -10 140 -33 220 -50 80 -18 149 -36 153 -40 4 -4 -74 -28 -175 -54 -101 -26 -212 -56 -248 -66 -36 -10 -110 -31 -165 -45 -101 -26 -315 -83 -571 -152 -76 -20 -152 -37 -169 -37 -16 0 -102 19 -190 43 -249 66 -324 86 -555 146 -363 95 -598 155 -605 155 -3 0 -4 4 -1 9 3 5 23 12 43 16 21 3 83 17 138 30 187 43 370 84 530 120 88 20 268 60 400 89 132 30 247 52 255 50 8 -2 166 -38 350 -79z"/>
 </g>
<g id="layer104" fill="#1abb9c" stroke="none">
 <path d="M629 4836 c-3 -3 -52 -10 -109 -15 -96 -8 -105 -10 -128 -37 -24 -27 -24 -32 -20 -154 5 -109 10 -139 43 -240 94 -289 289 -713 555 -1200 73 -135 137 -260 141 -279 20 -90 -44 -125 -285 -151 -356 -40 -541 -113 -627 -249 -25 -39 -29 -55 -29 -119 0 -62 5 -84 33 -145 126 -270 402 -449 1047 -677 297 -106 340 -126 359 -166 7 -16 17 -82 22 -149 12 -158 33 -250 75 -335 34 -68 35 -73 32 -169 -2 -55 0 -97 4 -94 5 2 8 51 8 107 l0 103 63 7 c144 16 326 76 445 148 l44 26 114 -58 c125 -63 225 -94 358 -112 l86 -11 2 -101 2 -101 5 105 c6 102 26 170 51 170 15 0 12 43 -4 66 -12 15 -15 70 -15 267 -1 136 2 247 6 247 5 0 7 -85 5 -189 -3 -158 -1 -194 12 -213 14 -22 14 -26 1 -46 -13 -18 -13 -25 -3 -42 7 -11 15 -20 18 -20 3 0 4 -81 2 -180 -2 -157 -1 -180 13 -180 13 0 15 25 15 185 0 147 3 187 14 191 13 5 14 34 1 65 -3 10 -3 19 2 22 4 3 7 91 5 196 l-3 191 -31 0 c-42 0 -33 6 20 13 l42 5 0 -70 0 -71 21 27 c31 39 111 76 379 173 527 191 879 402 993 594 35 61 37 67 37 154 0 71 -4 97 -19 121 -77 127 -239 197 -597 257 -234 40 -314 78 -314 149 0 63 23 115 235 543 180 365 261 533 340 710 71 161 146 353 159 412 30 133 16 256 -32 282 -75 40 -84 41 -715 41 -598 0 -608 0 -652 -21 -25 -12 -61 -39 -79 -60 -18 -22 -107 -187 -197 -367 -164 -328 -217 -412 -260 -412 -42 0 -90 66 -212 295 -204 382 -219 406 -279 466 -94 95 -76 93 -678 97 -284 1 -518 0 -521 -2z"/>
 <path d="M3014 1240 c0 -69 1 -97 3 -62 2 34 2 90 0 125 -2 34 -3 6 -3 -63z"/>
 <path d="M3012 1050 c0 -14 2 -19 5 -12 2 6 2 18 0 25 -3 6 -5 1 -5 -13z"/>
 <path d="M2030 900 c-8 -5 -10 -10 -5 -10 6 0 17 5 25 10 8 5 11 10 5 10 -5 0 -17 -5 -25 -10z"/>
 <path d="M2560 900 c8 -5 20 -10 25 -10 6 0 3 5 -5 10 -8 5 -19 10 -25 10 -5 0 -3 -5 5 -10z"/>
 <path d="M2924 780 c0 -74 1 -105 3 -67 2 37 2 97 0 135 -2 37 -3 6 -3 -68z"/>
 <path d="M1878 863 c7 -3 16 -2 19 1 4 3 -2 6 -13 5 -11 0 -14 -3 -6 -6z"/>
 <path d="M2718 863 c7 -3 16 -2 19 1 4 3 -2 6 -13 5 -11 0 -14 -3 -6 -6z"/>
 <path d="M1813 853 c9 -2 25 -2 35 0 9 3 1 5 -18 5 -19 0 -27 -2 -17 -5z"/>
 <path d="M2778 853 c12 -2 30 -2 40 0 9 3 -1 5 -23 4 -22 0 -30 -2 -17 -4z"/>
 <path d="M1764 755 c0 -49 1 -71 3 -48 2 23 2 64 0 90 -2 26 -3 8 -3 -42z"/>
 <path d="M2365 760 c-3 -6 1 -7 9 -4 18 7 21 14 7 14 -6 0 -13 -4 -16 -10z"/>
 <path d="M2018 713 c7 -3 16 -2 19 1 4 3 -2 6 -13 5 -11 0 -14 -3 -6 -6z"/>
 <path d="M1958 703 c-10 -2 -18 -9 -18 -14 0 -12 3 -12 36 6 28 14 19 18 -18 8z"/>
 <path d="M2654 696 c16 -9 31 -14 34 -11 8 8 0 13 -33 20 l-30 7 29 -16z"/>
 <path d="M1690 640 c8 -5 24 -10 34 -10 26 0 18 6 -19 14 -22 5 -26 4 -15 -4z"/>
 <path d="M1650 630 c13 -8 12 -10 -4 -10 -11 0 -17 -2 -14 -5 3 -4 18 -3 34 1 25 6 26 8 9 15 -28 11 -43 10 -25 -1z"/>
 <path d="M2898 633 c7 -3 16 -2 19 1 4 3 -2 6 -13 5 -11 0 -14 -3 -6 -6z"/>
 <path d="M2938 623 c7 -3 16 -2 19 1 4 3 -2 6 -13 5 -11 0 -14 -3 -6 -6z"/>
 <path d="M1448 573 c7 -3 16 -2 19 1 4 3 -2 6 -13 5 -11 0 -14 -3 -6 -6z"/>
 <path d="M3205 559 c32 -10 61 -16 63 -14 5 4 -97 35 -112 34 -6 0 16 -9 49 -20z"/>
 <path d="M1318 563 c7 -3 16 -2 19 1 4 3 -2 6 -13 5 -11 0 -14 -3 -6 -6z"/>
 <path d="M1408 563 c7 -3 16 -2 19 1 4 3 -2 6 -13 5 -11 0 -14 -3 -6 -6z"/>
 <path d="M1770 221 c12 -9 13 -11 1 -11 -8 0 -12 -2 -9 -5 3 -3 16 -1 29 4 13 5 19 10 12 10 -6 1 -20 4 -30 7 -15 5 -15 4 -3 -5z"/>
 <path d="M1943 176 c15 -7 25 -15 21 -18 -3 -4 4 -4 17 -1 22 6 21 7 -11 19 -45 16 -63 16 -27 0z"/>
 <path d="M2646 171 c-19 -7 -19 -8 2 -13 12 -4 20 -2 17 2 -3 5 1 11 7 13 7 3 9 5 3 6 -5 0 -19 -4 -29 -8z"/>
 <path d="M2000 150 c-8 -5 -10 -10 -5 -10 6 0 17 5 25 10 8 5 11 10 5 10 -5 0 -17 -5 -25 -10z"/>
 <path d="M2590 156 c0 -2 9 -6 20 -9 11 -3 18 -1 14 4 -5 9 -34 13 -34 5z"/>
 </g>
<g id="layer105" fill="#aeb934" stroke="none">
 <path d="M2915 1501 c-3 -2 -5 -86 -5 -185 1 -143 4 -185 15 -200 13 -17 13 -22 0 -43 -13 -19 -13 -26 -3 -43 7 -11 15 -20 18 -20 3 0 4 -81 2 -180 -2 -157 -1 -180 13 -180 13 0 15 25 15 185 0 147 3 187 14 191 13 5 14 34 1 65 -3 10 -3 19 2 22 4 3 7 91 5 195 l-3 190 -35 4 c-19 2 -37 2 -39 -1z"/>
 </g>
<g id="layer106" fill="#f3c40e" stroke="none">
 <path d="M2920 1313 c0 -104 4 -194 9 -202 5 -7 4 -25 -2 -42 -9 -23 -8 -32 6 -47 15 -16 17 -43 17 -195 0 -111 4 -177 10 -177 6 0 10 68 10 184 0 102 4 187 9 190 5 3 9 112 10 241 l2 235 -36 0 -35 0 0 -187z"/>
 </g>

</svg>